<svg version="1.0" preserveAspectRatio="xMidYMid meet" viewBox="75 135.749996742 208.50000000000003 92.999997768" zoomAndPan="magnify" xmlns:xlink="http://www.w3.org/1999/xlink" xmlns="http://www.w3.org/2000/svg" style="max-height: 500px" width="208.50000000000003" height="92.999997768"><defs><g/></defs><rect fill-opacity="1" height="449.999989" y="-37.499999" fill="#ffffff" width="450" x="-37.5"/><rect fill-opacity="1" height="449.999989" y="-37.499999" fill="#ffffff" width="450" x="-37.5"/><g fill-opacity="1" fill="#222222"><g transform="translate(123.366859, 222.876561)"><g><path d="M 8.4375 -3.96875 C 8.4375 -3.113281 8.59375 -2.3125 8.90625 -1.5625 C 9.226562 -0.820312 9.816406 -0.300781 10.671875 0 L 2.234375 0 C 3.171875 -0.300781 3.785156 -0.820312 4.078125 -1.5625 C 4.378906 -2.3125 4.53125 -3.113281 4.53125 -3.96875 L 4.53125 -27.421875 C 4.53125 -28.265625 4.378906 -29.046875 4.078125 -29.765625 C 3.785156 -30.492188 3.171875 -31.007812 2.234375 -31.3125 L 10.671875 -31.3125 C 9.773438 -31.007812 9.175781 -30.492188 8.875 -29.765625 C 8.582031 -29.046875 8.4375 -28.265625 8.4375 -27.421875 L 8.4375 -16.296875 L 23.203125 -16.296875 L 23.203125 -27.421875 C 23.203125 -28.265625 23.050781 -29.046875 22.75 -29.765625 C 22.445312 -30.492188 21.851562 -31.007812 20.96875 -31.3125 L 29.390625 -31.3125 C 28.453125 -31.007812 27.832031 -30.492188 27.53125 -29.765625 C 27.238281 -29.046875 27.09375 -28.265625 27.09375 -27.421875 L 27.09375 -4.09375 C 27.09375 -3.238281 27.238281 -2.414062 27.53125 -1.625 C 27.832031 -0.84375 28.453125 -0.300781 29.390625 0 L 20.96875 0 C 21.851562 -0.300781 22.445312 -0.84375 22.75 -1.625 C 23.050781 -2.414062 23.203125 -3.238281 23.203125 -4.09375 L 23.203125 -15.78125 L 8.4375 -15.78125 Z M 8.4375 -3.96875"/></g></g></g><g fill-opacity="1" fill="#222222"><g transform="translate(149.182291, 222.876561)"><g><path d="M 33.875 -15.65625 C 33.875 -13.476562 33.457031 -11.429688 32.625 -9.515625 C 31.789062 -7.597656 30.660156 -5.925781 29.234375 -4.5 C 27.804688 -3.070312 26.132812 -1.941406 24.21875 -1.109375 C 22.300781 -0.285156 20.253906 0.125 18.078125 0.125 C 15.910156 0.125 13.867188 -0.285156 11.953125 -1.109375 C 10.035156 -1.941406 8.363281 -3.070312 6.9375 -4.5 C 5.507812 -5.925781 4.378906 -7.597656 3.546875 -9.515625 C 2.710938 -11.429688 2.296875 -13.476562 2.296875 -15.65625 C 2.296875 -17.832031 2.710938 -19.878906 3.546875 -21.796875 C 4.378906 -23.710938 5.507812 -25.382812 6.9375 -26.8125 C 8.363281 -28.238281 10.035156 -29.363281 11.953125 -30.1875 C 13.867188 -31.019531 15.910156 -31.4375 18.078125 -31.4375 C 20.253906 -31.4375 22.300781 -31.019531 24.21875 -30.1875 C 26.132812 -29.363281 27.804688 -28.238281 29.234375 -26.8125 C 30.660156 -25.382812 31.789062 -23.710938 32.625 -21.796875 C 33.457031 -19.878906 33.875 -17.832031 33.875 -15.65625 Z M 6.703125 -16.421875 C 6.703125 -14.765625 6.976562 -12.988281 7.53125 -11.09375 C 8.09375 -9.195312 8.894531 -7.445312 9.9375 -5.84375 C 10.976562 -4.25 12.253906 -2.925781 13.765625 -1.875 C 15.285156 -0.832031 17.003906 -0.3125 18.921875 -0.3125 C 20.703125 -0.3125 22.273438 -0.78125 23.640625 -1.71875 C 25.003906 -2.65625 26.132812 -3.847656 27.03125 -5.296875 C 27.925781 -6.753906 28.597656 -8.332031 29.046875 -10.03125 C 29.492188 -11.738281 29.71875 -13.359375 29.71875 -14.890625 C 29.71875 -16.640625 29.453125 -18.453125 28.921875 -20.328125 C 28.390625 -22.203125 27.585938 -23.925781 26.515625 -25.5 C 25.453125 -27.070312 24.164062 -28.367188 22.65625 -29.390625 C 21.144531 -30.421875 19.382812 -30.9375 17.375 -30.9375 C 15.59375 -30.9375 14.039062 -30.46875 12.71875 -29.53125 C 11.394531 -28.59375 10.285156 -27.394531 9.390625 -25.9375 C 8.492188 -24.488281 7.820312 -22.921875 7.375 -21.234375 C 6.925781 -19.554688 6.703125 -17.953125 6.703125 -16.421875 Z M 6.703125 -16.421875"/></g></g></g><g fill-opacity="1" fill="#222222"><g transform="translate(179.470886, 222.876561)"><g><path d="M 6.328125 -4.734375 C 6.328125 -3.492188 6.664062 -2.476562 7.34375 -1.6875 C 8.03125 -0.90625 8.925781 -0.34375 10.03125 0 L 2.296875 0 C 3.410156 -0.34375 4.285156 -0.90625 4.921875 -1.6875 C 5.554688 -2.476562 5.875 -3.492188 5.875 -4.734375 L 5.875 -27.09375 C 5.875 -28.113281 5.507812 -28.984375 4.78125 -29.703125 C 4.0625 -30.429688 3.234375 -30.96875 2.296875 -31.3125 L 9.328125 -31.3125 L 22.234375 -5.375 L 33.359375 -31.3125 L 38.984375 -31.3125 C 38.085938 -31.007812 37.476562 -30.492188 37.15625 -29.765625 C 36.84375 -29.046875 36.6875 -28.265625 36.6875 -27.421875 L 36.6875 -4.03125 C 36.6875 -3.175781 36.84375 -2.363281 37.15625 -1.59375 C 37.476562 -0.832031 38.085938 -0.300781 38.984375 0 L 30.546875 0 C 31.484375 -0.300781 32.109375 -0.832031 32.421875 -1.59375 C 32.742188 -2.363281 32.90625 -3.175781 32.90625 -4.03125 L 32.90625 -28.828125 L 20.515625 -0.0625 L 6.328125 -28.6875 Z M 6.328125 -4.734375"/></g></g></g><g fill-opacity="1" fill="#222222"><g transform="translate(214.871671, 222.876561)"><g><path d="M 14.5 -0.515625 C 16.507812 -0.515625 18.472656 -0.984375 20.390625 -1.921875 C 22.304688 -2.859375 23.753906 -4.242188 24.734375 -6.078125 L 23.265625 0 L 2.234375 0 C 3.171875 -0.300781 3.785156 -0.84375 4.078125 -1.625 C 4.378906 -2.414062 4.53125 -3.238281 4.53125 -4.09375 L 4.53125 -27.421875 C 4.53125 -28.265625 4.378906 -29.0625 4.078125 -29.8125 C 3.785156 -30.5625 3.171875 -31.0625 2.234375 -31.3125 L 22.8125 -31.3125 L 24.09375 -25.3125 C 23.113281 -27.1875 21.800781 -28.566406 20.15625 -29.453125 C 18.519531 -30.347656 16.660156 -30.796875 14.578125 -30.796875 L 8.4375 -30.796875 L 8.4375 -16.171875 L 12.390625 -16.171875 C 13.546875 -16.171875 14.613281 -16.414062 15.59375 -16.90625 C 16.570312 -17.394531 17.234375 -18.253906 17.578125 -19.484375 L 17.578125 -12.46875 C 17.234375 -13.695312 16.570312 -14.535156 15.59375 -14.984375 C 14.613281 -15.429688 13.546875 -15.65625 12.390625 -15.65625 L 8.4375 -15.65625 L 8.4375 -0.515625 Z M 14.5 -0.515625"/></g></g></g><g fill-opacity="1" fill="#222222"><g transform="translate(236.030918, 222.876561)"><g/></g></g><g fill-opacity="1" fill="#222222"><g transform="translate(94.269205, 184.59359)"><g><path d="M 8.3125 -3.96875 C 8.3125 -3.15625 8.457031 -2.351562 8.75 -1.5625 C 9.050781 -0.78125 9.648438 -0.257812 10.546875 0 L 2.171875 0 C 3.109375 -0.257812 3.710938 -0.789062 3.984375 -1.59375 C 4.265625 -2.40625 4.40625 -3.238281 4.40625 -4.09375 L 4.40625 -27.421875 C 4.40625 -28.222656 4.253906 -29.019531 3.953125 -29.8125 C 3.660156 -30.601562 3.066406 -31.101562 2.171875 -31.3125 L 10.546875 -31.3125 C 9.648438 -31.0625 9.050781 -30.550781 8.75 -29.78125 C 8.457031 -29.007812 8.3125 -28.222656 8.3125 -27.421875 L 8.3125 -12.78125 C 12.90625 -12.78125 16.203125 -13.953125 18.203125 -16.296875 C 20.210938 -18.640625 21.21875 -22.023438 21.21875 -26.453125 C 21.21875 -28.671875 20.832031 -30.738281 20.0625 -32.65625 C 19.300781 -34.570312 18.226562 -36.234375 16.84375 -37.640625 C 15.457031 -39.046875 13.828125 -40.140625 11.953125 -40.921875 C 10.078125 -41.710938 8.007812 -42.109375 5.75 -42.109375 C 2.894531 -42.109375 0.304688 -41.585938 -2.015625 -40.546875 C -4.335938 -39.503906 -6.304688 -38.078125 -7.921875 -36.265625 C -9.546875 -34.453125 -10.800781 -32.332031 -11.6875 -29.90625 C -12.582031 -27.476562 -13.03125 -24.878906 -13.03125 -22.109375 C -13.03125 -19.890625 -12.710938 -17.738281 -12.078125 -15.65625 C -11.441406 -13.570312 -10.492188 -11.726562 -9.234375 -10.125 C -7.972656 -8.53125 -6.425781 -7.253906 -4.59375 -6.296875 C -2.769531 -5.335938 -0.640625 -4.859375 1.796875 -4.859375 L 1.796875 -4.28125 C -0.847656 -4.28125 -3.234375 -4.800781 -5.359375 -5.84375 C -7.492188 -6.882812 -9.304688 -8.28125 -10.796875 -10.03125 C -12.285156 -11.78125 -13.4375 -13.789062 -14.25 -16.0625 C -15.0625 -18.34375 -15.46875 -20.742188 -15.46875 -23.265625 C -15.46875 -26.242188 -14.890625 -28.925781 -13.734375 -31.3125 C -12.585938 -33.695312 -11.046875 -35.726562 -9.109375 -37.40625 C -7.171875 -39.09375 -4.921875 -40.394531 -2.359375 -41.3125 C 0.191406 -42.226562 2.894531 -42.6875 5.75 -42.6875 C 8.132812 -42.6875 10.476562 -42.34375 12.78125 -41.65625 C 15.082031 -40.976562 17.140625 -39.957031 18.953125 -38.59375 C 20.765625 -37.226562 22.222656 -35.546875 23.328125 -33.546875 C 24.429688 -31.546875 24.984375 -29.222656 24.984375 -26.578125 C 24.984375 -23.941406 24.566406 -21.71875 23.734375 -19.90625 C 22.910156 -18.09375 21.75 -16.617188 20.25 -15.484375 C 18.757812 -14.359375 16.992188 -13.539062 14.953125 -13.03125 C 12.910156 -12.519531 10.695312 -12.265625 8.3125 -12.265625 Z M 8.3125 -3.96875"/></g></g></g><g fill-opacity="1" fill="#222222"><g transform="translate(115.675377, 184.59359)"><g><path d="M 6.640625 -2.9375 C 6.640625 -2.125 6.875 -1.484375 7.34375 -1.015625 C 7.8125 -0.546875 8.410156 -0.207031 9.140625 0 L 2.296875 0 C 3.066406 -0.257812 3.789062 -0.726562 4.46875 -1.40625 C 5.15625 -2.082031 5.644531 -2.828125 5.9375 -3.640625 L 16.8125 -31.703125 L 27.734375 -3.640625 C 28.078125 -2.878906 28.515625 -2.144531 29.046875 -1.4375 C 29.578125 -0.738281 30.25 -0.257812 31.0625 0 L 21.859375 0 C 22.410156 -0.164062 22.863281 -0.535156 23.21875 -1.109375 C 23.582031 -1.691406 23.765625 -2.238281 23.765625 -2.75 C 23.765625 -3.09375 23.613281 -3.6875 23.3125 -4.53125 C 23.019531 -5.382812 22.679688 -6.300781 22.296875 -7.28125 C 21.921875 -8.257812 21.550781 -9.195312 21.1875 -10.09375 C 20.820312 -10.988281 20.554688 -11.648438 20.390625 -12.078125 L 9.84375 -12.078125 C 9.664062 -11.648438 9.40625 -11.019531 9.0625 -10.1875 C 8.726562 -9.363281 8.378906 -8.492188 8.015625 -7.578125 C 7.660156 -6.660156 7.34375 -5.773438 7.0625 -4.921875 C 6.78125 -4.066406 6.640625 -3.40625 6.640625 -2.9375 Z M 9.96875 -12.59375 L 20.125 -12.59375 L 15.078125 -25.75 Z M 9.96875 -12.59375"/></g></g></g><g fill-opacity="1" fill="#222222"><g transform="translate(143.216177, 184.59359)"><g><path d="M 15.28125 -0.515625 C 17.40625 -0.515625 19.191406 -1.054688 20.640625 -2.140625 C 22.085938 -3.222656 23.34375 -4.640625 24.40625 -6.390625 L 23 0 L 2.234375 0 C 3.171875 -0.300781 3.785156 -0.84375 4.078125 -1.625 C 4.378906 -2.414062 4.53125 -3.238281 4.53125 -4.09375 L 4.53125 -27.421875 C 4.53125 -28.265625 4.378906 -29.046875 4.078125 -29.765625 C 3.785156 -30.492188 3.171875 -31.007812 2.234375 -31.3125 L 10.671875 -31.3125 C 9.773438 -31.007812 9.175781 -30.492188 8.875 -29.765625 C 8.582031 -29.046875 8.4375 -28.265625 8.4375 -27.421875 L 8.4375 -0.515625 Z M 15.28125 -0.515625"/></g></g></g><g fill-opacity="1" fill="#222222"><g transform="translate(164.047226, 184.59359)"><g><path d="M 6.640625 -2.9375 C 6.640625 -2.125 6.875 -1.484375 7.34375 -1.015625 C 7.8125 -0.546875 8.410156 -0.207031 9.140625 0 L 2.296875 0 C 3.066406 -0.257812 3.789062 -0.726562 4.46875 -1.40625 C 5.15625 -2.082031 5.644531 -2.828125 5.9375 -3.640625 L 16.8125 -31.703125 L 27.734375 -3.640625 C 28.078125 -2.878906 28.515625 -2.144531 29.046875 -1.4375 C 29.578125 -0.738281 30.25 -0.257812 31.0625 0 L 21.859375 0 C 22.410156 -0.164062 22.863281 -0.535156 23.21875 -1.109375 C 23.582031 -1.691406 23.765625 -2.238281 23.765625 -2.75 C 23.765625 -3.09375 23.613281 -3.6875 23.3125 -4.53125 C 23.019531 -5.382812 22.679688 -6.300781 22.296875 -7.28125 C 21.921875 -8.257812 21.550781 -9.195312 21.1875 -10.09375 C 20.820312 -10.988281 20.554688 -11.648438 20.390625 -12.078125 L 9.84375 -12.078125 C 9.664062 -11.648438 9.40625 -11.019531 9.0625 -10.1875 C 8.726562 -9.363281 8.378906 -8.492188 8.015625 -7.578125 C 7.660156 -6.660156 7.34375 -5.773438 7.0625 -4.921875 C 6.78125 -4.066406 6.640625 -3.40625 6.640625 -2.9375 Z M 9.96875 -12.59375 L 20.125 -12.59375 L 15.078125 -25.75 Z M 9.96875 -12.59375"/></g></g></g><g fill-opacity="1" fill="#222222"><g transform="translate(191.588026, 184.59359)"><g><path d="M 29.84375 -4.53125 C 29.113281 -3.894531 28.28125 -3.300781 27.34375 -2.75 C 26.414062 -2.195312 25.4375 -1.707031 24.40625 -1.28125 C 23.382812 -0.851562 22.351562 -0.507812 21.3125 -0.25 C 20.269531 0 19.257812 0.125 18.28125 0.125 C 16.0625 0.125 13.972656 -0.273438 12.015625 -1.078125 C 10.054688 -1.890625 8.351562 -3 6.90625 -4.40625 C 5.457031 -5.8125 4.316406 -7.472656 3.484375 -9.390625 C 2.648438 -11.304688 2.234375 -13.394531 2.234375 -15.65625 C 2.234375 -17.914062 2.648438 -20.003906 3.484375 -21.921875 C 4.316406 -23.835938 5.457031 -25.5 6.90625 -26.90625 C 8.351562 -28.3125 10.054688 -29.414062 12.015625 -30.21875 C 13.972656 -31.03125 16.0625 -31.4375 18.28125 -31.4375 C 20.019531 -31.4375 21.828125 -31.210938 23.703125 -30.765625 C 25.578125 -30.316406 27.195312 -29.539062 28.5625 -28.4375 L 28.5625 -23.328125 C 27.925781 -24.222656 27.191406 -25.117188 26.359375 -26.015625 C 25.523438 -26.910156 24.628906 -27.71875 23.671875 -28.4375 C 22.710938 -29.164062 21.679688 -29.75 20.578125 -30.1875 C 19.472656 -30.632812 18.34375 -30.859375 17.1875 -30.859375 C 15.351562 -30.859375 13.773438 -30.421875 12.453125 -29.546875 C 11.140625 -28.679688 10.046875 -27.578125 9.171875 -26.234375 C 8.296875 -24.890625 7.65625 -23.382812 7.25 -21.71875 C 6.84375 -20.0625 6.640625 -18.445312 6.640625 -16.875 C 6.640625 -15.125 6.875 -13.28125 7.34375 -11.34375 C 7.8125 -9.40625 8.535156 -7.632812 9.515625 -6.03125 C 10.492188 -4.4375 11.738281 -3.117188 13.25 -2.078125 C 14.769531 -1.035156 16.570312 -0.515625 18.65625 -0.515625 C 19.851562 -0.515625 20.972656 -0.738281 22.015625 -1.1875 C 23.054688 -1.632812 24.015625 -2.21875 24.890625 -2.9375 C 25.765625 -3.664062 26.550781 -4.5 27.25 -5.4375 C 27.957031 -6.375 28.566406 -7.332031 29.078125 -8.3125 Z M 29.84375 -4.53125"/></g></g></g><g fill-opacity="1" fill="#222222"><g transform="translate(217.914677, 184.59359)"><g><path d="M 8.4375 -4.09375 C 8.4375 -3.238281 8.582031 -2.414062 8.875 -1.625 C 9.175781 -0.84375 9.773438 -0.300781 10.671875 0 L 2.234375 0 C 3.171875 -0.300781 3.785156 -0.832031 4.078125 -1.59375 C 4.378906 -2.363281 4.53125 -3.195312 4.53125 -4.09375 L 4.53125 -27.421875 C 4.53125 -28.265625 4.378906 -29.046875 4.078125 -29.765625 C 3.785156 -30.492188 3.171875 -31.007812 2.234375 -31.3125 L 10.671875 -31.3125 C 9.773438 -31.007812 9.175781 -30.492188 8.875 -29.765625 C 8.582031 -29.046875 8.4375 -28.265625 8.4375 -27.421875 Z M 8.4375 -4.09375"/></g></g></g><g fill-opacity="1" fill="#222222"><g transform="translate(225.006717, 184.59359)"><g><path d="M 33.875 -15.65625 C 33.875 -13.476562 33.457031 -11.429688 32.625 -9.515625 C 31.789062 -7.597656 30.660156 -5.925781 29.234375 -4.5 C 27.804688 -3.070312 26.132812 -1.941406 24.21875 -1.109375 C 22.300781 -0.285156 20.253906 0.125 18.078125 0.125 C 15.910156 0.125 13.867188 -0.285156 11.953125 -1.109375 C 10.035156 -1.941406 8.363281 -3.070312 6.9375 -4.5 C 5.507812 -5.925781 4.378906 -7.597656 3.546875 -9.515625 C 2.710938 -11.429688 2.296875 -13.476562 2.296875 -15.65625 C 2.296875 -17.832031 2.710938 -19.878906 3.546875 -21.796875 C 4.378906 -23.710938 5.507812 -25.382812 6.9375 -26.8125 C 8.363281 -28.238281 10.035156 -29.363281 11.953125 -30.1875 C 13.867188 -31.019531 15.910156 -31.4375 18.078125 -31.4375 C 20.253906 -31.4375 22.300781 -31.019531 24.21875 -30.1875 C 26.132812 -29.363281 27.804688 -28.238281 29.234375 -26.8125 C 30.660156 -25.382812 31.789062 -23.710938 32.625 -21.796875 C 33.457031 -19.878906 33.875 -17.832031 33.875 -15.65625 Z M 6.703125 -16.421875 C 6.703125 -14.765625 6.976562 -12.988281 7.53125 -11.09375 C 8.09375 -9.195312 8.894531 -7.445312 9.9375 -5.84375 C 10.976562 -4.25 12.253906 -2.925781 13.765625 -1.875 C 15.285156 -0.832031 17.003906 -0.3125 18.921875 -0.3125 C 20.703125 -0.3125 22.273438 -0.78125 23.640625 -1.71875 C 25.003906 -2.65625 26.132812 -3.847656 27.03125 -5.296875 C 27.925781 -6.753906 28.597656 -8.332031 29.046875 -10.03125 C 29.492188 -11.738281 29.71875 -13.359375 29.71875 -14.890625 C 29.71875 -16.640625 29.453125 -18.453125 28.921875 -20.328125 C 28.390625 -22.203125 27.585938 -23.925781 26.515625 -25.5 C 25.453125 -27.070312 24.164062 -28.367188 22.65625 -29.390625 C 21.144531 -30.421875 19.382812 -30.9375 17.375 -30.9375 C 15.59375 -30.9375 14.039062 -30.46875 12.71875 -29.53125 C 11.394531 -28.59375 10.285156 -27.394531 9.390625 -25.9375 C 8.492188 -24.488281 7.820312 -22.921875 7.375 -21.234375 C 6.925781 -19.554688 6.703125 -17.953125 6.703125 -16.421875 Z M 6.703125 -16.421875"/></g></g></g><g fill-opacity="1" fill="#222222"><g transform="translate(255.295312, 184.59359)"><g><path d="M 23.640625 -7.796875 C 23.640625 -6.347656 23.332031 -5.101562 22.71875 -4.0625 C 22.101562 -3.019531 21.304688 -2.164062 20.328125 -1.5 C 19.347656 -0.84375 18.238281 -0.363281 17 -0.0625 C 15.757812 0.238281 14.503906 0.390625 13.234375 0.390625 C 12.421875 0.390625 11.628906 0.28125 10.859375 0.0625 C 10.097656 -0.144531 9.363281 -0.363281 8.65625 -0.59375 C 7.957031 -0.832031 7.265625 -1.054688 6.578125 -1.265625 C 5.898438 -1.484375 5.21875 -1.59375 4.53125 -1.59375 C 4.0625 -1.59375 3.613281 -1.460938 3.1875 -1.203125 C 2.769531 -0.953125 2.429688 -0.632812 2.171875 -0.25 L 2.171875 -9.90625 C 2.554688 -8.800781 3.097656 -7.671875 3.796875 -6.515625 C 4.503906 -5.367188 5.335938 -4.335938 6.296875 -3.421875 C 7.253906 -2.503906 8.316406 -1.742188 9.484375 -1.140625 C 10.660156 -0.546875 11.890625 -0.25 13.171875 -0.25 C 14.054688 -0.25 14.96875 -0.34375 15.90625 -0.53125 C 16.84375 -0.726562 17.6875 -1.050781 18.4375 -1.5 C 19.1875 -1.945312 19.804688 -2.539062 20.296875 -3.28125 C 20.785156 -4.03125 21.03125 -4.9375 21.03125 -6 C 21.03125 -7.320312 20.582031 -8.421875 19.6875 -9.296875 C 18.789062 -10.171875 17.671875 -10.96875 16.328125 -11.6875 C 14.984375 -12.414062 13.519531 -13.109375 11.9375 -13.765625 C 10.363281 -14.429688 8.90625 -15.195312 7.5625 -16.0625 C 6.226562 -16.9375 5.113281 -17.984375 4.21875 -19.203125 C 3.320312 -20.421875 2.875 -21.921875 2.875 -23.703125 C 2.875 -25.066406 3.140625 -26.257812 3.671875 -27.28125 C 4.203125 -28.3125 4.90625 -29.175781 5.78125 -29.875 C 6.65625 -30.582031 7.664062 -31.101562 8.8125 -31.4375 C 9.96875 -31.78125 11.1875 -31.953125 12.46875 -31.953125 C 13.3125 -31.953125 14.117188 -31.832031 14.890625 -31.59375 C 15.660156 -31.363281 16.375 -31.109375 17.03125 -30.828125 C 17.6875 -30.554688 18.289062 -30.300781 18.84375 -30.0625 C 19.40625 -29.832031 19.878906 -29.71875 20.265625 -29.71875 C 20.859375 -29.71875 21.320312 -29.894531 21.65625 -30.25 C 22 -30.613281 22.257812 -31.03125 22.4375 -31.5 C 22.382812 -30.1875 22.296875 -28.878906 22.171875 -27.578125 C 22.046875 -26.273438 21.984375 -24.960938 21.984375 -23.640625 C 21.679688 -24.660156 21.210938 -25.640625 20.578125 -26.578125 C 19.941406 -27.515625 19.195312 -28.34375 18.34375 -29.0625 C 17.488281 -29.789062 16.550781 -30.378906 15.53125 -30.828125 C 14.507812 -31.273438 13.441406 -31.5 12.328125 -31.5 C 11.484375 -31.5 10.644531 -31.378906 9.8125 -31.140625 C 8.976562 -30.910156 8.238281 -30.570312 7.59375 -30.125 C 6.957031 -29.675781 6.4375 -29.101562 6.03125 -28.40625 C 5.632812 -27.707031 5.4375 -26.890625 5.4375 -25.953125 C 5.4375 -24.585938 5.878906 -23.445312 6.765625 -22.53125 C 7.660156 -21.613281 8.789062 -20.769531 10.15625 -20 C 11.519531 -19.238281 12.976562 -18.515625 14.53125 -17.828125 C 16.09375 -17.148438 17.554688 -16.363281 18.921875 -15.46875 C 20.285156 -14.570312 21.410156 -13.515625 22.296875 -12.296875 C 23.191406 -11.085938 23.640625 -9.585938 23.640625 -7.796875 Z M 23.640625 -7.796875"/></g></g></g><g fill-opacity="1" fill="#222222"><g transform="translate(243.135764, 222.426547)"><g><path d="M 5.609375 -0.859375 C 5.472656 -0.734375 5.316406 -0.617188 5.140625 -0.515625 C 4.960938 -0.410156 4.773438 -0.316406 4.578125 -0.234375 C 4.390625 -0.160156 4.195312 -0.0976562 4 -0.046875 C 3.800781 0.00390625 3.613281 0.03125 3.4375 0.03125 C 3.019531 0.03125 2.625 -0.046875 2.25 -0.203125 C 1.882812 -0.359375 1.566406 -0.566406 1.296875 -0.828125 C 1.023438 -1.085938 0.8125 -1.394531 0.65625 -1.75 C 0.5 -2.113281 0.421875 -2.507812 0.421875 -2.9375 C 0.421875 -3.363281 0.5 -3.753906 0.65625 -4.109375 C 0.8125 -4.472656 1.023438 -4.785156 1.296875 -5.046875 C 1.566406 -5.316406 1.882812 -5.523438 2.25 -5.671875 C 2.625 -5.828125 3.019531 -5.90625 3.4375 -5.90625 C 3.757812 -5.90625 4.097656 -5.863281 4.453125 -5.78125 C 4.804688 -5.695312 5.109375 -5.550781 5.359375 -5.34375 L 5.359375 -4.375 C 5.242188 -4.539062 5.109375 -4.707031 4.953125 -4.875 C 4.796875 -5.050781 4.625 -5.207031 4.4375 -5.34375 C 4.257812 -5.476562 4.066406 -5.585938 3.859375 -5.671875 C 3.648438 -5.753906 3.441406 -5.796875 3.234375 -5.796875 C 2.890625 -5.796875 2.59375 -5.710938 2.34375 -5.546875 C 2.09375 -5.378906 1.882812 -5.171875 1.71875 -4.921875 C 1.550781 -4.671875 1.429688 -4.390625 1.359375 -4.078125 C 1.285156 -3.765625 1.25 -3.460938 1.25 -3.171875 C 1.25 -2.835938 1.289062 -2.488281 1.375 -2.125 C 1.46875 -1.757812 1.601562 -1.425781 1.78125 -1.125 C 1.96875 -0.832031 2.203125 -0.585938 2.484375 -0.390625 C 2.773438 -0.191406 3.113281 -0.09375 3.5 -0.09375 C 3.726562 -0.09375 3.9375 -0.132812 4.125 -0.21875 C 4.320312 -0.300781 4.503906 -0.410156 4.671875 -0.546875 C 4.835938 -0.679688 4.984375 -0.835938 5.109375 -1.015625 C 5.242188 -1.191406 5.359375 -1.375 5.453125 -1.5625 Z M 5.609375 -0.859375"/></g></g></g><g fill-opacity="1" fill="#222222"><g transform="translate(248.079783, 222.426547)"><g><path d="M 6.359375 -2.9375 C 6.359375 -2.53125 6.28125 -2.144531 6.125 -1.78125 C 5.96875 -1.425781 5.753906 -1.113281 5.484375 -0.84375 C 5.222656 -0.570312 4.910156 -0.359375 4.546875 -0.203125 C 4.191406 -0.046875 3.804688 0.03125 3.390625 0.03125 C 2.984375 0.03125 2.597656 -0.046875 2.234375 -0.203125 C 1.878906 -0.359375 1.566406 -0.570312 1.296875 -0.84375 C 1.035156 -1.113281 0.828125 -1.425781 0.671875 -1.78125 C 0.515625 -2.144531 0.4375 -2.53125 0.4375 -2.9375 C 0.4375 -3.34375 0.515625 -3.722656 0.671875 -4.078125 C 0.828125 -4.441406 1.035156 -4.757812 1.296875 -5.03125 C 1.566406 -5.300781 1.878906 -5.515625 2.234375 -5.671875 C 2.597656 -5.828125 2.984375 -5.90625 3.390625 -5.90625 C 3.804688 -5.90625 4.191406 -5.828125 4.546875 -5.671875 C 4.910156 -5.515625 5.222656 -5.300781 5.484375 -5.03125 C 5.753906 -4.757812 5.96875 -4.441406 6.125 -4.078125 C 6.28125 -3.722656 6.359375 -3.34375 6.359375 -2.9375 Z M 1.265625 -3.078125 C 1.265625 -2.765625 1.316406 -2.429688 1.421875 -2.078125 C 1.523438 -1.722656 1.671875 -1.394531 1.859375 -1.09375 C 2.054688 -0.789062 2.296875 -0.539062 2.578125 -0.34375 C 2.867188 -0.15625 3.191406 -0.0625 3.546875 -0.0625 C 3.890625 -0.0625 4.1875 -0.148438 4.4375 -0.328125 C 4.695312 -0.503906 4.910156 -0.726562 5.078125 -1 C 5.242188 -1.269531 5.367188 -1.5625 5.453125 -1.875 C 5.535156 -2.195312 5.578125 -2.503906 5.578125 -2.796875 C 5.578125 -3.117188 5.523438 -3.457031 5.421875 -3.8125 C 5.328125 -4.164062 5.179688 -4.488281 4.984375 -4.78125 C 4.785156 -5.082031 4.539062 -5.328125 4.25 -5.515625 C 3.96875 -5.710938 3.640625 -5.8125 3.265625 -5.8125 C 2.929688 -5.8125 2.640625 -5.722656 2.390625 -5.546875 C 2.140625 -5.367188 1.929688 -5.144531 1.765625 -4.875 C 1.597656 -4.601562 1.472656 -4.304688 1.390625 -3.984375 C 1.304688 -3.671875 1.265625 -3.367188 1.265625 -3.078125 Z M 1.265625 -3.078125"/></g></g></g><g fill-opacity="1" fill="#222222"><g transform="translate(253.767805, 222.426547)"><g><path d="M 1.359375 -0.40625 C 1.359375 -0.289062 1.316406 -0.1875 1.234375 -0.09375 C 1.148438 -0.0078125 1.050781 0.03125 0.9375 0.03125 C 0.820312 0.03125 0.722656 -0.0078125 0.640625 -0.09375 C 0.554688 -0.1875 0.515625 -0.289062 0.515625 -0.40625 C 0.515625 -0.519531 0.554688 -0.613281 0.640625 -0.6875 C 0.722656 -0.769531 0.820312 -0.8125 0.9375 -0.8125 C 1.050781 -0.8125 1.148438 -0.769531 1.234375 -0.6875 C 1.316406 -0.613281 1.359375 -0.519531 1.359375 -0.40625 Z M 1.359375 -0.40625"/></g></g></g></svg>